<svg xmlns="http://www.w3.org/2000/svg" width="127.38" height="62.295" viewBox="0 0 127.38 62.295">
  <g id="EY_Logo_Gold" data-name="EY Logo Gold" transform="translate(-2.31 -34.84)">
    <path id="Path_1" data-name="Path 1" d="M30.66,96.88l3.95-10h1.28l3.91,10h-2L37,94.82H34.4l-.53-1.42h2.62l-1-2.75-.28-.91-.28.91-2.37,6.23Z" fill="#bd8b13"/>
    <path id="Path_2" data-name="Path 2" d="M43,96.88v-10h2v10Z" fill="#bd8b13"/>
    <path id="Path_3" data-name="Path 3" d="M54.52,96.88l-2.28-3.26h-1.1v3.26H49.21v-10H52.4a4,4,0,0,1,2.68.8A3,3,0,0,1,56,90.11a3.86,3.86,0,0,1-.53,2A3.05,3.05,0,0,1,54,93.36l2.75,3.53ZM51.14,92.3h1.25c1.1,0,1.64-.66,1.64-2a2.05,2.05,0,0,0-.37-1.3,1.52,1.52,0,0,0-1.27-.47H51.14Z" fill="#bd8b13"/>
    <path id="Path_4" data-name="Path 4" d="M61.81,96.88l-3-10h2L62.7,94h.08l1.76-5.5L64,86.93h1.9L68.24,94h.06l1.84-7.09H72l-3,9.94H67.4l-2-6.17-2,6.17Z" fill="#bd8b13"/>
    <path id="Path_5" data-name="Path 5" d="M73.57,96.88l4-10H78.8l3.91,10h-2l-.8-2.06H77.3l-.55-1.42h2.63l-1-2.75-.27-.91-.29.91-2.33,6.22Z" fill="#bd8b13"/>
    <path id="Path_6" data-name="Path 6" d="M87.08,96.88V92.8l-3.25-5.88H86l2.16,4.19,2.23-4.19h1.92L89,92.8v4.08Z" fill="#bd8b13"/>
    <path id="Path_7" data-name="Path 7" d="M97.5,97.12a4.41,4.41,0,0,1-2.5-.66v-2a3.73,3.73,0,0,0,2.59,1c1.2,0,1.84-.46,1.84-1.39a1.07,1.07,0,0,0-.36-.84,3.23,3.23,0,0,0-1.26-.51l-.36-.08c-1.68-.41-2.52-1.36-2.52-2.86a2.89,2.89,0,0,1,.92-2.28,3.82,3.82,0,0,1,2.62-.82,4.35,4.35,0,0,1,2.56.66v2a4,4,0,0,0-1.12-.69,3.88,3.88,0,0,0-1.51-.31,2.12,2.12,0,0,0-1.23.29,1.28,1.28,0,0,0-.06,1.74,3.12,3.12,0,0,0,1.22.5l.36.08a4.07,4.07,0,0,1,2,1,2.5,2.5,0,0,1,.63,1.84,3.21,3.21,0,0,1-.91,2.42A4,4,0,0,1,97.5,97.12Z" fill="#bd8b13"/>
    <path id="Path_8" data-name="Path 8" d="M70.24,38.87l1.7-1.7,1.55,1.55.16.14-1.71,1.71Z" fill="#bd8b13"/>
    <path id="Path_9" data-name="Path 9" d="M73.66,38.87l1.7-1.7,1.55,1.55.15.14-1.7,1.71Z" fill="#bd8b13"/>
    <path id="Path_10" data-name="Path 10" d="M71.34,55.83a1.87,1.87,0,0,1-.8-.18,2.856,2.856,0,0,1-1-2.35V53H55.1V40c0-.55-.35-.7-.66-.86s-.52-.27-.57-.65V38.3A19.31,19.31,0,0,0,57.31,35V50.84H69.59v-.63c0-.54,0-1.67-2.75-1.69H62.52c-.78-.07-1.2-.92-1.2-1.69a1.36,1.36,0,0,1,.55-1.18l.18-.13.11.2c.25.46,1.26.67,3.18.67h3c3.23,0,3.61,2.82,3.66,4v.48h3.11V46s0-.34-.62-.71a1.14,1.14,0,0,1-.55-.77,10.06,10.06,0,0,0,3.3-3.47V53h-5.4v.18a2.79,2.79,0,0,0,.56,2l.24.18-.3.21a1.94,1.94,0,0,1-1,.26Z" fill="#bd8b13"/>
    <path id="Path_11" data-name="Path 11" d="M45.55,54.84V53h-7.4V50.8H47.6v2.93s-.1.92,1.69.92a1.09,1.09,0,0,0,1.06-1.12V48.3a.74.74,0,0,0-.65-.83H38.15V41a11.6,11.6,0,0,0,2.64,2.4c.21.13.1.49-.56.92-.14.08-.3.15-.3.34v.81H51.2c1.31,0,1.43,1.4,1.43,1.83v7.48s-.1,2-3.33,2C45.31,56.74,45.55,54.84,45.55,54.84Z" fill="#bd8b13"/>
    <path id="Path_12" data-name="Path 12" d="M90.31,53V34.87l.38.62A8,8,0,0,0,92.13,37a6.55,6.55,0,0,0,1.25.91c.21.08.36.15.36.36v.18c0,.39-.32.52-.58.66a.91.91,0,0,0-.62.86V53Z" fill="#bd8b13"/>
    <path id="Path_13" data-name="Path 13" d="M79.67,55.38,82,53.09l-2.75-2.7V34.88A11.19,11.19,0,0,0,82,38.31v.18a.82.82,0,0,1-.45.64.92.92,0,0,0-.51.92v9.16l2.29,2.38,2.29-2.38V40a.9.9,0,0,0-.51-.91.8.8,0,0,1-.45-.63v-.12a9.07,9.07,0,0,0,2.82-3.5v15.3l-2.75,2.91,2.29,2.29L83.4,59Zm3.66,1.54,1.53-1.54-1.53-1.54L81.8,55.38Z" fill="#bd8b13"/>
    <path id="Path_14" data-name="Path 14" d="M73.88,76.25l3.89-4.2V63.81a.22.22,0,0,1,.08-.13l.56-.28v-.48H73.19v.47l.54.34c.16.1.16.16.16.21v4.74H63.44l-2.35,3V63.82l.12-.08.49-.3h.06V63h-5.2v.47l.52.34c.08,0,.11.07.13.07h0v14.3a.31.31,0,0,1-.11.09l-.51.35v.46h5.22v-.47l-.55-.34-.13-.07h0V71.7l.56.16.72-.41a1.26,1.26,0,0,1,.33-.16,1.4,1.4,0,0,1,.29,0H73.92Z" fill="#bd8b13"/>
    <path id="Path_15" data-name="Path 15" d="M129.33,69.25a8.34,8.34,0,0,0-4.16-4.72c-2-1.08-4.69-1.61-8.41-1.61H102.57v.46s.6.4.62.4h0v1.68h13.55a12.612,12.612,0,0,1,6,1.08A5,5,0,0,1,125.58,71a4.76,4.76,0,0,1-.75,2.57,6,6,0,0,1-2.26,1.93,13.58,13.58,0,0,1-5.94,1h-7.07V66.62H105.7V78.17l-.11.11-.47.3h0V79H116.7a28.37,28.37,0,0,0,5.21-.38,12.36,12.36,0,0,0,4.44-1.83,7.59,7.59,0,0,0,2.74-3,6,6,0,0,0,.6-2.66,7,7,0,0,0-.36-1.88Z" fill="#bd8b13"/>
    <path id="Path_16" data-name="Path 16" d="M78.4,78.47h-.21l9.72-10.08-2.25-2.41L73.07,79h5.8v-.57h-.2a1.22,1.22,0,0,1-.27.04Z" fill="#bd8b13"/>
    <path id="Path_17" data-name="Path 17" d="M86.71,65.27l2.48,2.64,2.57,2.58H87.42L85,73l.52.35.56-.3h8l5.12,5.5s-.07.09-.52.09h-.2v.56h5.79L88.94,62.89Z" fill="#bd8b13"/>
    <path id="Path_18" data-name="Path 18" d="M49.5,63.41l.52.34c.12.08.18.15.18.22V78.16l-.13.11-.54.34v.47h5.18v-.46l-.48-.34c-.07,0-.11-.07-.12-.07h0V63.81l.12-.11.47-.32v-.47H49.5Z" fill="#bd8b13"/>
    <path id="Path_19" data-name="Path 19" d="M27.82,76l-.68.39-.3.16H15.26a13.76,13.76,0,0,1-6-1,4.86,4.86,0,0,1-3-4.51,4.6,4.6,0,0,1,.77-2.54,6.63,6.63,0,0,1,4.5-2.82A8.509,8.509,0,0,1,13,65.52h6c.35,0,.3.08.31.11l-.07.42h.5L22.26,63H15.14a32.448,32.448,0,0,0-3.82.16,12.453,12.453,0,0,0-1.36.23,12.77,12.77,0,0,0-3.38,1.32,8.64,8.64,0,0,0-3.66,3.74,6.5,6.5,0,0,0-.61,2.81c0,2.6,1.4,4.68,4.17,6.18a13.1,13.1,0,0,0,4.17,1.41,30.16,30.16,0,0,0,4.65.27H26L28.6,76Z" fill="#bd8b13"/>
    <path id="Path_20" data-name="Path 20" d="M22.69,72.1l2.5-3.1H8.31L6.62,71.5h15.2c.3,0,.39.11.4.16l-.06.45Z" fill="#bd8b13"/>
    <path id="Path_21" data-name="Path 21" d="M21.64,65.89l.48.17h.07l.74-.37a1,1,0,0,1,.61-.2h9.33V78.17l-.12.11-.53.35v.45h5.21v-.46l-.54-.33-.13-.12a.33.33,0,0,1,0-.14V65.5H45c.33,0,.36.11.36.12v.44h.42l2.56-3.12H24Z" fill="#bd8b13"/>
  </g>
</svg>
